<svg width="23" height="23" viewBox="0 0 23 23" fill="none" xmlns="http://www.w3.org/2000/svg">
<path d="M11.72 9.14746V13.4075H17.64C17.38 14.7775 16.5999 15.9375 15.4299 16.7175L18.9999 19.4875C21.0799 17.5676 22.2799 14.7475 22.2799 11.3976C22.2799 10.6176 22.2099 9.86751 22.0799 9.14758L11.72 9.14746Z" fill="#4285F4"/>
<path d="M5.55536 13.2412L4.75019 13.8576L1.90015 16.0775C3.71014 19.6675 7.41987 22.1475 11.7198 22.1475C14.6898 22.1475 17.1797 21.1675 18.9998 19.4875L15.4298 16.7175C14.4498 17.3775 13.1998 17.7776 11.7198 17.7776C8.85985 17.7776 6.42992 15.8476 5.55986 13.2476L5.55536 13.2412Z" fill="#34A853"/>
<path d="M1.90013 6.21777C1.15017 7.69771 0.720215 9.36773 0.720215 11.1477C0.720215 12.9277 1.15017 14.5977 1.90013 16.0776C1.90013 16.0876 5.56019 13.2376 5.56019 13.2376C5.34019 12.5776 5.21016 11.8777 5.21016 11.1476C5.21016 10.4175 5.34019 9.71753 5.56019 9.05754L1.90013 6.21777Z" fill="#FBBC05"/>
<path d="M11.7201 4.52745C13.3401 4.52745 14.7801 5.08743 15.9301 6.16744L19.08 3.01749C17.17 1.23753 14.6901 0.147461 11.7201 0.147461C7.42009 0.147461 3.71014 2.61745 1.90015 6.21745L5.5601 9.05745C6.43004 6.45743 8.86007 4.52745 11.7201 4.52745Z" fill="#EA4335"/>
</svg>
