<svg width="34" height="59" viewBox="0 0 34 59" fill="none" xmlns="http://www.w3.org/2000/svg">
<path d="M1.30918 57.2595C2.17674 57.851 3.19134 58.1319 4.35298 58.1319C5.04409 58.1319 5.80872 57.9988 6.61746 57.7327C7.4262 57.4665 8.19083 57.0968 8.88193 56.594C9.57304 56.0913 10.1465 55.5294 10.5876 54.8787C11.0288 54.2428 11.2346 53.5035 11.2346 52.6902C11.2346 51.4037 10.7641 50.5016 9.83772 49.9693C8.91134 49.4369 7.89674 49.1855 6.79391 49.1855C6.04399 49.1855 5.24995 49.3038 4.44121 49.5404C3.63247 49.777 2.89725 50.1172 2.26496 50.546C1.63267 50.9896 1.08861 51.5368 0.647481 52.217C0.221054 52.8972 0.000488281 53.6661 0.000488281 54.5534C0.000488281 55.7807 0.44162 56.6828 1.30918 57.2595Z" fill="#8C8DFF"/>
<path d="M18.4688 57.7037C15.4838 57.9403 13.087 55.7074 12.6458 52.7056L8.96973 6.09566C8.73446 3.09382 10.9548 0.476448 13.9398 0.239849C16.9248 0.00325045 19.5275 2.23615 19.7627 5.238L23.4388 51.8479C23.6741 54.8498 21.4538 57.4671 18.4688 57.7037Z" fill="#5C52FB"/>
<path d="M16.6309 33.5263C13.6459 33.7629 11.2491 31.53 10.808 28.5282L8.98463 6.09566C8.74936 3.09382 10.9697 0.476448 13.9547 0.239849C16.9397 0.00325048 19.5424 2.23615 19.7776 5.23799L21.601 27.6705C21.8363 30.6723 19.6159 33.2897 16.6309 33.5263Z" fill="#AEAEFF"/>
<path d="M19.1161 3.03423C19.9248 4.52775 19.9983 5.90298 19.3954 7.1747C18.7926 8.44642 18.0573 9.73292 17.1898 11.049C16.3222 12.3651 15.6164 13.7403 15.1018 15.1451C14.5871 16.5499 14.8077 18.147 15.7488 19.8919C16.2487 20.8087 16.9104 21.4889 17.7044 21.9178C18.4985 22.3466 19.366 22.6423 20.2924 22.8346C21.2188 23.0268 22.2187 23.1895 23.2921 23.3226C24.3655 23.4704 25.4095 23.7218 26.4388 24.0767C27.4681 24.4464 28.4827 25.0231 29.4679 25.8068C30.4531 26.5906 31.3648 27.7292 32.1735 29.2079C33.3499 31.3521 33.9528 33.7773 33.9969 36.4538C34.041 39.1303 33.644 41.7477 32.8205 44.3059C31.9971 46.8641 30.7766 49.2153 29.1739 51.3743C27.5711 53.5332 25.7183 55.1894 23.6303 56.3428C22.7627 56.816 21.8658 57.2301 20.9247 57.585C19.9836 57.9399 19.0866 58.1173 18.1897 58.1469C17.3074 58.1617 16.4546 57.9843 15.6458 57.5998C14.8371 57.2153 14.1607 56.5055 13.5872 55.4852C12.8079 54.0508 12.4697 52.7791 12.602 51.6848C12.7344 50.5758 13.102 49.5554 13.7196 48.6238C14.3371 47.6774 15.0724 46.8198 15.9252 46.0065C16.7781 45.2079 17.528 44.365 18.1897 43.5074C18.8514 42.6497 19.2778 41.7477 19.5131 40.8309C19.7336 39.914 19.5425 38.8789 18.9249 37.7551C18.3073 36.6312 17.3074 35.8031 15.837 35.1081C14.3665 34.4279 12.7638 33.7033 11.0287 32.964C9.29353 32.2246 7.60253 31.3373 5.95564 30.317C4.30875 29.2967 2.98536 27.8919 2.01487 26.1026C0.823813 23.8845 0.162116 21.5924 0.0297764 19.2412C-0.102563 16.8752 0.206229 14.598 0.956152 12.3799C1.70608 10.1618 2.82361 8.13588 4.32345 6.27267C5.8233 4.40945 7.64664 2.88635 9.77878 1.70336C10.5875 1.25974 11.4404 0.89005 12.3079 0.609089C13.1755 0.328128 14.0283 0.209829 14.8518 0.254191C15.6752 0.298554 16.4546 0.535152 17.1751 0.963987C17.9103 1.39282 18.572 2.08783 19.1014 3.04901L19.1161 3.03423Z" fill="#8C8DFF"/>
</svg>
